<?xml version="1.0" encoding="UTF-8" standalone="no"?>
<!-- Created with Inkscape (http://www.inkscape.org/) -->

<svg
   width="1161.6257"
   height="879.66638"
   viewBox="0 0 307.34679 232.74507"
   version="1.1"
   id="svg5"
   xml:space="preserve"
   inkscape:export-filename="handcrafted-haven.svg"
   inkscape:export-xdpi="96"
   inkscape:export-ydpi="96"
   xmlns:inkscape="http://www.inkscape.org/namespaces/inkscape"
   xmlns:sodipodi="http://sodipodi.sourceforge.net/DTD/sodipodi-0.dtd"
   xmlns:xlink="http://www.w3.org/1999/xlink"
   xmlns="http://www.w3.org/2000/svg"
   xmlns:svg="http://www.w3.org/2000/svg"><sodipodi:namedview
     id="namedview7"
     pagecolor="#ffffff"
     bordercolor="#000000"
     borderopacity="0.25"
     inkscape:showpageshadow="2"
     inkscape:pageopacity="0.0"
     inkscape:pagecheckerboard="0"
     inkscape:deskcolor="#d1d1d1"
     inkscape:document-units="mm"
     showgrid="false" /><defs
     id="defs2" /><g
     inkscape:groupmode="layer"
     id="layer2"
     inkscape:label="path"
     transform="translate(-341.78066,5.2789091)"><text
       xml:space="preserve"
       style="font-size:70.5556px;font-family:'Patrick Hand';-inkscape-font-specification:'Patrick Hand';writing-mode:lr-tb;fill:#ffffff;fill-opacity:1;stroke-width:0.735762;stroke-linecap:round"
       id="text1513"
       inkscape:export-filename="handcrafted-haven-with-text-orange.svg"
       inkscape:export-xdpi="96"
       inkscape:export-ydpi="96"><textPath
         xlink:href="#path1515"
         id="textPath1517"
         style="font-size:70.5556px;fill:#ffffff">Handcrafted Haven</textPath></text><path
       style="fill:none;fill-opacity:1;stroke:none;stroke-width:0.4;stroke-linecap:round;stroke-opacity:1"
       d="m 391.93988,212.47412 c 0,0 -33.7206,-165.498504 109.98858,-167.222857 144.94973,-1.739238 109.98858,171.744507 109.98858,171.744507"
       id="path1515"
       sodipodi:nodetypes="csc" /><path
       style="fill:#ffffff;fill-opacity:1;stroke-width:0.659932;stroke-linecap:round"
       d="m 485.65267,227.1706 -46.39906,0.29556 c 0,0 11.76685,-22.85036 15.0723,-35.16873 1.92858,-7.18714 -0.21233,-15.30039 2.65982,-22.16515 3.59851,-8.60084 17.43659,-21.86962 17.43659,-21.86962 0,0 11.17132,-16.9837 16.25444,-23.34729 2.42195,-3.03204 7.3263,-0.31471 5.91071,6.79731 -0.87134,4.37771 -2.35488,9.06554 -3.54642,13.59463 -1.27064,4.82972 -7.31004,8.91647 -3.84196,14.48123 9.08326,3.79154 12.2044,3.94452 40.78388,-10.63927 8.02419,-4.09463 13.03759,-17.8158 17.73212,-22.75623 3.0119,-3.16963 8.74912,-7.81259 12.11696,-5.02411 3.72037,3.08038 -2.95536,8.57053 -2.95536,8.57053 0,0 -13.14663,22.84311 -26.59817,45.21692 -12.13232,5.34085 -22.54107,11.60636 -34.57765,23.64284 -10.36713,10.36704 -10.0482,28.37138 -10.0482,28.37138 z"
       id="path1528"
       sodipodi:nodetypes="ccsscssscsssccsc"
       inkscape:export-filename="handcrafted-haven-rectangle.svg"
       inkscape:export-xdpi="96"
       inkscape:export-ydpi="96" /><path
       style="fill:#ffffff;fill-opacity:1;stroke-width:0.659932;stroke-linecap:round"
       d="m 512.88415,130.54791 c 0,0 -5.57821,-8.8198 -11.3132,-13.62152 -4.97485,-4.16526 -6.43018,-4.89638 -15.60944,-9.85117 -7.27621,-3.92754 -11.76223,-14.102937 -11.68974,-23.462084 0.0862,-11.146139 6.59231,-15.587077 11.91046,-15.738531 6.53059,-0.186 8.3568,2.073467 8.3568,2.073467 0,0 10.77362,-12.552759 18.53351,-12.582567 7.48749,-0.02871 18.93805,12.930246 18.93805,12.930246 0,0 2.68923,-2.47648 8.79171,-2.563842 6.18604,-0.08859 15.13218,0.197895 15.3778,14.643738 0.20761,12.209849 -7.08857,18.319883 -15.19314,23.808883 -9.06792,6.14142 -9.97645,6.88283 -17.05826,11.00828 -5.0995,2.97069 -11.04454,13.3551 -11.04455,13.3551 z"
       id="path1530"
       sodipodi:nodetypes="csssscscssssc" /></g></svg>
