<?xml version="1.0" encoding="UTF-8" standalone="no"?>
<!-- Created with Inkscape (http://www.inkscape.org/) -->

<svg
   width="1393.9336"
   height="389.67816"
   viewBox="0 0 368.81158 103.10235"
   version="1.1"
   id="svg5"
   xml:space="preserve"
   inkscape:export-filename="handcrafted-haven.svg"
   inkscape:export-xdpi="96"
   inkscape:export-ydpi="96"
   xmlns:inkscape="http://www.inkscape.org/namespaces/inkscape"
   xmlns:sodipodi="http://sodipodi.sourceforge.net/DTD/sodipodi-0.dtd"
   xmlns="http://www.w3.org/2000/svg"
   xmlns:svg="http://www.w3.org/2000/svg"><sodipodi:namedview
     id="namedview7"
     pagecolor="#ffffff"
     bordercolor="#000000"
     borderopacity="0.25"
     inkscape:showpageshadow="2"
     inkscape:pageopacity="0.0"
     inkscape:pagecheckerboard="0"
     inkscape:deskcolor="#d1d1d1"
     inkscape:document-units="mm"
     showgrid="false" /><defs
     id="defs2" /><g
     inkscape:groupmode="layer"
     id="layer2"
     inkscape:label="path"
     transform="translate(-220.27658,123.68096)"><path
       style="fill:#f97216;fill-opacity:1;stroke-width:0.4;stroke-linecap:round"
       d="m 248.40022,-20.75775 -28.12364,0.17914 c 0,0 7.13218,-13.85018 9.1357,-21.31665 1.16896,-4.3563 -0.1287,-9.273953 1.61219,-13.434862 2.18115,-5.213189 10.56875,-13.255729 10.56875,-13.255729 0,0 6.77122,-10.294251 9.85224,-14.151387 1.468,-1.8378 4.44065,-0.190743 3.58263,4.120024 -0.52815,2.653434 -1.42736,5.494858 -2.14958,8.240048 -0.77017,2.927418 -4.4308,5.404498 -2.32871,8.777442 5.50559,2.298156 7.3974,2.390871 24.72014,-6.448733 4.86366,-2.481868 7.90242,-10.79861 10.74789,-13.793123 1.82558,-1.921196 5.30306,-4.735405 7.34439,-3.045235 2.25501,1.867088 -1.79132,5.194813 -1.79132,5.194813 0,0 -7.9685,13.845779 -16.12182,27.407116 -7.35371,3.237222 -13.66271,7.034906 -20.95839,14.330516 -6.28378,6.28373 -6.09047,17.19662 -6.09047,17.19662 z"
       id="path303"
       sodipodi:nodetypes="ccsscssscsssccsc"
       inkscape:export-filename="handcrafted-haven.svg"
       inkscape:export-xdpi="96"
       inkscape:export-ydpi="96" /><path
       style="fill:#f97216;fill-opacity:1;stroke-width:0.4;stroke-linecap:round"
       d="m 264.90591,-79.323208 c 0,0 -3.38109,-5.345902 -6.85722,-8.256347 -3.01538,-2.524671 -3.89749,-2.967823 -9.46127,-5.97104 -4.41029,-2.380585 -7.12939,-8.548155 -7.08545,-14.220965 0.0523,-6.75596 3.99577,-9.44773 7.21924,-9.53953 3.95835,-0.11273 5.06526,1.25679 5.06526,1.25679 0,0 6.53016,-7.60855 11.23363,-7.62662 4.53836,-0.0174 11.47883,7.83735 11.47883,7.83735 0,0 1.63001,-1.50106 5.32888,-1.55401 3.74951,-0.0537 9.172,0.11995 9.32087,8.87594 0.12583,7.4007 -4.29656,11.104149 -9.20895,14.431169 -5.49629,3.722481 -6.04697,4.171853 -10.33944,6.672403 -3.09093,1.800599 -6.69437,8.09486 -6.69438,8.09486 z"
       id="path509"
       sodipodi:nodetypes="csssscscssssc" /><text
       xml:space="preserve"
       style="font-size:64.8901px;font-family:'Patrick Hand';-inkscape-font-specification:'Patrick Hand';writing-mode:lr-tb;fill:#f97216;fill-opacity:1;stroke-width:0.735762;stroke-linecap:round"
       x="307.59485"
       y="-75.563454"
       id="text1415"><tspan
         sodipodi:role="line"
         id="tspan1413"
         style="writing-mode:lr-tb;stroke-width:0.735762"
         x="307.59485"
         y="-75.563454">Handcrafted</tspan></text><text
       xml:space="preserve"
       style="font-size:64.8901px;font-family:'Patrick Hand';-inkscape-font-specification:'Patrick Hand';writing-mode:lr-tb;fill:#f97216;fill-opacity:1;stroke-width:0.735762;stroke-linecap:round"
       x="307.59485"
       y="-21.793249"
       id="text1469"><tspan
         sodipodi:role="line"
         id="tspan1467"
         style="writing-mode:lr-tb;stroke-width:0.735762"
         x="307.59485"
         y="-21.793249">Haven</tspan></text></g></svg>
