<?xml version="1.0" encoding="UTF-8" standalone="no"?>
<!-- Created with Inkscape (http://www.inkscape.org/) -->

<svg
   width="1393.9335"
   height="389.67807"
   viewBox="0 0 368.81155 103.10233"
   version="1.1"
   id="svg5"
   xml:space="preserve"
   inkscape:export-filename="handcrafted-haven.svg"
   inkscape:export-xdpi="96"
   inkscape:export-ydpi="96"
   xmlns:inkscape="http://www.inkscape.org/namespaces/inkscape"
   xmlns:sodipodi="http://sodipodi.sourceforge.net/DTD/sodipodi-0.dtd"
   xmlns="http://www.w3.org/2000/svg"
   xmlns:svg="http://www.w3.org/2000/svg"><sodipodi:namedview
     id="namedview7"
     pagecolor="#ffffff"
     bordercolor="#000000"
     borderopacity="0.25"
     inkscape:showpageshadow="2"
     inkscape:pageopacity="0.0"
     inkscape:pagecheckerboard="0"
     inkscape:deskcolor="#d1d1d1"
     inkscape:document-units="mm"
     showgrid="false" /><defs
     id="defs2" /><g
     inkscape:groupmode="layer"
     id="layer2"
     inkscape:label="path"
     transform="translate(91.071286,392.39611)"><path
       style="fill:#f97216;fill-opacity:1;stroke-width:0.4;stroke-linecap:round"
       d="m -62.947643,-289.47292 -28.12364,0.17914 c 0,0 7.13218,-13.85018 9.1357,-21.31665 1.16896,-4.3563 -0.1287,-9.27395 1.61219,-13.43486 2.18115,-5.21319 10.56875,-13.25573 10.56875,-13.25573 0,0 6.77122,-10.29425 9.85224,-14.15139 1.468,-1.8378 4.44065,-0.19074 3.58263,4.12003 -0.52815,2.65343 -1.42736,5.49486 -2.14958,8.24005 -0.77017,2.92741 -4.4308,5.40449 -2.32871,8.77744 5.50559,2.29815 7.3974,2.39087 24.72014,-6.44873 4.86366,-2.48187 7.90242,-10.79861 10.74789,-13.79313 1.82558,-1.92119 5.30306,-4.7354 7.34439,-3.04523 2.25501,1.86709 -1.79132,5.19481 -1.79132,5.19481 0,0 -7.9685,13.84578 -16.12182,27.40712 -7.35371,3.23722 -13.66271,7.0349 -20.95839,14.33051 -6.28378,6.28373 -6.09047,17.19662 -6.09047,17.19662 z"
       id="path303"
       sodipodi:nodetypes="ccsscssscsssccsc"
       inkscape:export-filename="handcrafted-haven-orange.svg"
       inkscape:export-xdpi="96"
       inkscape:export-ydpi="96" /><path
       style="fill:#f97216;fill-opacity:1;stroke-width:0.4;stroke-linecap:round"
       d="m -46.441953,-348.03838 c 0,0 -3.38109,-5.3459 -6.85722,-8.25634 -3.01538,-2.52467 -3.89749,-2.96783 -9.46127,-5.97104 -4.41029,-2.38059 -7.12939,-8.54816 -7.08545,-14.22097 0.0523,-6.75596 3.99577,-9.44773 7.21924,-9.53953 3.95835,-0.11273 5.06526,1.25679 5.06526,1.25679 0,0 6.53016,-7.60855 11.23363,-7.62662 4.53836,-0.0174 11.47883,7.83735 11.47883,7.83735 0,0 1.63001,-1.50106 5.32888,-1.55401 3.74951,-0.0537 9.172,0.11995 9.32087,8.87594 0.12583,7.4007 -4.29656,11.10415 -9.20895,14.43117 -5.49629,3.72248 -6.04697,4.17185 -10.33944,6.6724 -3.09093,1.8006 -6.69437,8.09486 -6.69438,8.09486 z"
       id="path509"
       sodipodi:nodetypes="csssscscssssc" /><text
       xml:space="preserve"
       style="font-size:64.8901px;font-family:'Patrick Hand';-inkscape-font-specification:'Patrick Hand';writing-mode:lr-tb;fill:#f97216;fill-opacity:1;stroke-width:0.735762;stroke-linecap:round"
       x="-3.7530141"
       y="-344.27863"
       id="text1415"><tspan
         sodipodi:role="line"
         id="tspan1413"
         style="writing-mode:lr-tb;stroke-width:0.735762"
         x="-3.7530141"
         y="-344.27863">Handcrafted</tspan></text><text
       xml:space="preserve"
       style="font-size:64.8901px;font-family:'Patrick Hand';-inkscape-font-specification:'Patrick Hand';writing-mode:lr-tb;fill:#f97216;fill-opacity:1;stroke-width:0.735762;stroke-linecap:round"
       x="-3.7530141"
       y="-290.50842"
       id="text1469"><tspan
         sodipodi:role="line"
         id="tspan1467"
         style="writing-mode:lr-tb;stroke-width:0.735762"
         x="-3.7530141"
         y="-290.50842">Haven</tspan></text></g></svg>
